<?xml version="1.0" encoding="UTF-8" standalone="no"?>
<!-- Generator: Adobe Illustrator 18.0.0, SVG Export Plug-In . SVG Version: 6.00 Build 0)  -->

<svg
   xmlns:dc="http://purl.org/dc/elements/1.1/"
   xmlns:cc="http://creativecommons.org/ns#"
   xmlns:rdf="http://www.w3.org/1999/02/22-rdf-syntax-ns#"
   xmlns:svg="http://www.w3.org/2000/svg"
   xmlns="http://www.w3.org/2000/svg"
   xmlns:sodipodi="http://sodipodi.sourceforge.net/DTD/sodipodi-0.dtd"
   xmlns:inkscape="http://www.inkscape.org/namespaces/inkscape"
   version="1.1"
   id="Capa_1"
   x="0px"
   y="0px"
   viewBox="0 0 490 490"
   style="enable-background:new 0 0 490 490;"
   xml:space="preserve"
   sodipodi:docname="place.svg"
   inkscape:version="0.92.1 r15371"><metadata
     id="metadata43"><rdf:RDF><cc:Work
         rdf:about=""><dc:format>image/svg+xml</dc:format><dc:type
           rdf:resource="http://purl.org/dc/dcmitype/StillImage" /></cc:Work></rdf:RDF></metadata><defs
     id="defs41" /><sodipodi:namedview
     pagecolor="#ffffff"
     bordercolor="#666666"
     borderopacity="1"
     objecttolerance="10"
     gridtolerance="10"
     guidetolerance="10"
     inkscape:pageopacity="0"
     inkscape:pageshadow="2"
     inkscape:window-width="640"
     inkscape:window-height="480"
     id="namedview39"
     showgrid="false"
     inkscape:zoom="0.48163265"
     inkscape:cx="245"
     inkscape:cy="245"
     inkscape:window-x="0"
     inkscape:window-y="27"
     inkscape:window-maximized="0"
     inkscape:current-layer="Capa_1" /><g
     id="g6"
     style="fill:#333333"><path
       d="M245.001,0C156.458,0,84.424,71.987,84.424,160.472c0,85.04,145.93,315.146,152.142,324.9   c1.836,2.882,5.017,4.628,8.435,4.628c3.418,0,6.599-1.746,8.434-4.628c6.212-9.754,152.141-239.861,152.141-324.9   C405.576,71.987,333.542,0,245.001,0z M245.001,461.127c-13.207-21.363-40.009-65.587-66.549-114.588   c-48.429-89.418-74.027-153.758-74.027-186.067C104.424,83.015,167.487,20,245.001,20c77.514,0,140.575,63.015,140.575,140.472   c0,32.309-25.599,96.649-74.027,186.067C285.009,395.539,258.207,439.764,245.001,461.127z"
       id="path2"
       style="fill:#333333" /><path
       d="M244.999,76.071c-41.884,0-75.959,33.149-75.959,73.894c0,40.744,34.075,73.891,75.959,73.891s75.959-33.147,75.959-73.891   C320.958,109.22,286.883,76.071,244.999,76.071z M244.999,203.855c-30.855,0-55.959-24.175-55.959-53.891   c0-29.717,25.104-53.894,55.959-53.894s55.959,24.177,55.959,53.894C300.958,179.68,275.855,203.855,244.999,203.855z"
       id="path4"
       style="fill:#333333" /></g><g
     id="g8" /><g
     id="g10" /><g
     id="g12" /><g
     id="g14" /><g
     id="g16" /><g
     id="g18" /><g
     id="g20" /><g
     id="g22" /><g
     id="g24" /><g
     id="g26" /><g
     id="g28" /><g
     id="g30" /><g
     id="g32" /><g
     id="g34" /><g
     id="g36" /></svg>